Coordinates
version=1
nRows=49
nColumns=12
inDegrees=yes

Units are S.I. units (second, meters, Newtons, ...)
Angles are in degrees

endheader
time	SC_y	SC_z	SC_x	AC_y	AC_z	AC_x	GH_y	GH_z	GH_yy	EL_x	PS_y
       0.0              -16.66          4.555          7.244          51.34         -4.135          10.38         -77.07         -8.812         -21.07          52.45           34.8
   0.03787              -16.66          4.556          7.248          51.34         -4.137          10.38         -77.06         -8.798         -21.06          52.46          34.79
   0.07573              -16.66          4.557          7.252          51.34         -4.139          10.38         -77.05         -8.783         -21.05          52.47          34.79
    0.1136              -16.66          4.558          7.256          51.34         -4.141          10.38         -77.04         -8.768         -21.04          52.48          34.79
    0.1515              -16.66          4.559          7.261          51.33         -4.143          10.37         -77.03         -8.751         -21.03          52.49          34.79
    0.1893              -16.66           4.56          7.266          51.33         -4.145          10.37         -77.01         -8.733         -21.02           52.5          34.79
    0.2272              -16.66          4.561          7.271          51.33         -4.147          10.37          -77.0         -8.714         -21.01           52.5          34.79
    0.2651              -16.66          4.562          7.277          51.33          -4.15          10.37         -76.98         -8.693         -20.99          52.52          34.79
    0.3029              -16.67          4.564          7.283          51.33         -4.153          10.36         -76.97         -8.672         -20.98          52.53          34.79
    0.3408              -16.67          4.565           7.29          51.33         -4.156          10.36         -76.95         -8.648         -20.96          52.54          34.79
    0.3787              -16.67          4.567          7.297          51.33         -4.159          10.35         -76.93         -8.623         -20.95          52.55          34.79
    0.4165              -16.67          4.568          7.304          51.33         -4.162          10.35         -76.91         -8.596         -20.93          52.57          34.78
    0.4544              -16.67           4.57          7.313          51.33         -4.166          10.35         -76.89         -8.567         -20.91          52.58          34.78
    0.4923              -16.67          4.572          7.321          51.33          -4.17          10.34         -76.87         -8.535         -20.89           52.6          34.78
    0.5301              -16.67          4.574          7.331          51.32         -4.174          10.34         -76.84         -8.501         -20.87          52.62          34.78
     0.568              -16.67          4.576          7.341          51.32         -4.178          10.33         -76.82         -8.464         -20.85          52.63          34.78
    0.6059              -16.67          4.579          7.352          51.32         -4.183          10.32         -76.79         -8.424         -20.82          52.66          34.78
    0.6437              -16.67          4.582          7.365          51.32         -4.189          10.32         -76.76          -8.38         -20.79          52.68          34.77
    0.6816              -16.67          4.585          7.378          51.32         -4.195          10.31         -76.72         -8.332         -20.76           52.7          34.77
    0.7195              -16.67          4.588          7.393          51.32         -4.201           10.3         -76.68          -8.28         -20.73          52.73          34.77
    0.7573              -16.67          4.591          7.409          51.31         -4.208          10.29         -76.64         -8.222         -20.69          52.76          34.77
    0.7952              -16.67          4.595          7.426          51.31         -4.216          10.28         -76.59         -8.159         -20.65          52.79          34.76
    0.8331              -16.68            4.6          7.446          51.31         -4.225          10.27         -76.54         -8.089         -20.61          52.83          34.76
    0.8709              -16.68          4.604          7.468          51.31         -4.235          10.26         -76.49         -8.011         -20.56          52.87          34.76
    0.9088              -16.68           4.61          7.492           51.3         -4.245          10.25         -76.42         -7.925         -20.51          52.91          34.75
    0.9467              -16.68          4.616          7.518           51.3         -4.257          10.23         -76.35         -7.829         -20.44          52.96          34.75
    0.9845              -16.68          4.622          7.549          51.29          -4.27          10.21         -76.28         -7.721         -20.38          53.02          34.74
     1.022              -16.68           4.63          7.582          51.29         -4.285          10.19         -76.19           -7.6          -20.3          53.08          34.73
      1.06              -16.69          4.638          7.621          51.28         -4.302          10.17         -76.09         -7.463         -20.21          53.15          34.73
     1.098              -16.69          4.648          7.664          51.28         -4.322          10.15         -75.97         -7.307         -20.11          53.23          34.72
     1.136              -16.69          4.659          7.714          51.27         -4.344          10.12         -75.85          -7.13          -20.0          53.32          34.71
     1.174               -16.7          4.671           7.77          51.26         -4.369          10.09          -75.7         -6.926         -19.87          53.43           34.7
     1.212               -16.7          4.686          7.836          51.26         -4.398          10.05         -75.53         -6.691         -19.72          53.55          34.69
      1.25               -16.7          4.703          7.912          51.24         -4.432          10.01         -75.33         -6.418         -19.55          53.69          34.68
     1.287              -16.71          4.722          8.001          51.23         -4.471          9.958         -75.09         -6.098         -19.35          53.86          34.66
     1.325              -16.72          4.746          8.107          51.22         -4.518          9.899         -74.82         -5.722         -19.11          54.05          34.64
     1.363              -16.72          4.773          8.232           51.2         -4.574          9.829         -74.49         -5.274         -18.82          54.28          34.62
     1.401              -16.73          4.806          8.382          51.18          -4.64          9.744          -74.1         -4.737         -18.48          54.56          34.59
     1.439              -16.74          4.846          8.563          51.16         -4.721          9.642         -73.63         -4.088         -18.07           54.9          34.56
     1.477              -16.76          4.895          8.784          51.12         -4.819          9.518         -73.05         -3.294         -17.57          55.31          34.52
     1.515              -16.78          4.956          9.058          51.09          -4.94          9.364         -72.34         -2.315         -16.95          55.82          34.47
     1.553               -16.8          5.031          9.398          51.04         -5.091          9.172         -71.45         -1.094         -16.17          56.45          34.41
      1.59              -16.82          5.126          9.828          50.98         -5.282           8.93         -70.33          0.444          -15.2          57.24          34.33
     1.628              -16.86          5.246          10.37          50.91         -5.524          8.623          -68.9          2.399         -13.96          58.25          34.23
     1.666               -16.9          5.401          11.07          50.81         -5.834           8.23         -67.08          4.902         -12.37          59.55          34.11
     1.704              -16.96          5.599          11.97          50.69         -6.232          7.725         -64.74          8.113         -10.34          61.21          33.95
     1.742              -17.03          5.852          13.11          50.53          -6.74          7.081         -61.75          12.22         -7.736          63.33          33.74
      1.78              -17.12           6.17          14.55          50.33         -7.379           6.27          -58.0          17.37         -4.466           66.0          33.48
     1.818              -17.23          6.557          16.31          50.09         -8.158          5.283         -53.42          23.66        -0.4808          69.25          33.17
